# File created by Blade
# Date/Time:  Wed Jan 21 17:47:32 2015
# Frame Rate: 120.000 fps
#------------------------------------------------------
:FULLY-SPECIFIED
:DEGREES
1068
root 21.331644 27.282349 -17.158835 -142.574695 58.986920 -199.547637
Spine 48.889387 4.697089 9.624031
Head -29.722408 12.704109 -0.463731
LeftShoulder 4.943621 -41.214368 0.051148
LeftArm 21.903259 17.893629 -70.621114
LeftForeArm 10.407074 -0.000000 29.036359
LeftHand 2.783055 -0.000000 17.207496
LeftHandThumb1 -26.253704 0.000000 33.147579
RightShoulder 19.177946 23.003143 -27.307611
RightArm 52.094847 15.864079 45.675007
RightForeArm -9.076756 -0.000000 5.324114
RightHand -15.949401 -0.000000 -19.348625
RightHandThumb1 -24.326973 -0.000000 -32.862282
LeftUpLeg -20.803556 28.605223 -5.032970
LeftLeg -4.171376 -0.000000 0.000000
LeftFoot -36.637451 9.086307 -27.228267
LeftToeBase 30.409683 -0.000000 -0.000000
RightUpLeg -116.804601 -7.820702 3.598104
RightLeg 72.395509 -0.000000 -0.000000
RightFoot -29.349196 -26.498574 13.338921
RightToeBase 22.598333 -0.000000 -0.000000
1069
root 21.329184 27.272875 -17.193504 -143.276797 58.710499 -199.966754
Spine 48.890951 4.890184 10.699565
Head -29.463681 13.107774 -1.571537
LeftShoulder 4.124789 -40.364377 -0.045020
LeftArm 20.352009 17.805695 -70.539410
LeftForeArm 10.381373 -0.000000 29.863627
LeftHand 2.662079 -0.000000 16.943477
LeftHandThumb1 -26.253704 0.000000 33.147579
RightShoulder 19.173262 22.532028 -27.299048
RightArm 51.481803 16.696056 45.881643
RightForeArm -9.049532 -0.000000 5.139310
RightHand -15.692510 0.000000 -19.233475
RightHandThumb1 -24.326973 -0.000000 -32.862282
LeftUpLeg -20.368410 28.233905 -4.871516
LeftLeg -4.184725 -0.000000 0.000000
LeftFoot -36.660358 9.107954 -27.224649
LeftToeBase 30.350907 -0.000000 -0.000000
RightUpLeg -116.582774 -8.280087 3.608046
RightLeg 72.617280 -0.000000 -0.000000
RightFoot -29.495347 -26.378438 13.450301
RightToeBase 22.736581 -0.000000 -0.000000
1070
root 21.324409 27.268346 -17.213435 -143.782357 58.497274 -200.262461
Spine 48.794856 5.197941 11.728809
Head -29.096129 13.531843 -2.593899
LeftShoulder 3.362386 -39.476020 -0.127221
LeftArm 18.703387 17.746210 -70.264630
LeftForeArm 10.344146 -0.000000 30.858513
LeftHand 2.597521 -0.000000 16.474113
LeftHandThumb1 -26.253704 0.000000 33.147579
RightShoulder 19.249219 22.073066 -27.305599
RightArm 50.726429 17.520690 46.005475
RightForeArm -9.032151 -0.000000 5.046541
RightHand -15.490651 0.000000 -19.276966
RightHandThumb1 -24.326973 -0.000000 -32.862282
LeftUpLeg -20.080666 27.954710 -4.742179
LeftLeg -4.153236 -0.000000 0.000000
LeftFoot -36.673174 9.116296 -27.220963
LeftToeBase 30.355132 -0.000000 -0.000000
RightUpLeg -116.405884 -8.626219 3.594847
RightLeg 72.749959 -0.000000 -0.000000
RightFoot -29.601369 -26.342964 13.469401
RightToeBase 23.114367 -0.000000 -0.000000
1071
root 21.322890 27.264926 -17.227653 -144.116329 58.279357 -200.430333
Spine 48.650224 5.638019 12.824765
Head -28.758395 13.899803 -3.467894
LeftShoulder 2.561804 -38.574227 -0.232330
LeftArm 17.237220 17.602095 -69.990727
LeftForeArm 10.485231 -0.000000 31.546099
LeftHand 2.745762 -0.000000 15.668536
LeftHandThumb1 -26.253704 0.000000 33.147579
RightShoulder 19.231366 21.721090 -27.175079
RightArm 49.834841 18.184300 45.967397
RightForeArm -9.142484 0.000000 5.024501
RightHand -15.312414 0.000000 -19.339261
RightHandThumb1 -24.326973 -0.000000 -32.862282
LeftUpLeg -19.870142 27.698931 -4.579759
LeftLeg -4.112279 -0.000000 0.000000
LeftFoot -36.718277 9.124816 -27.192006
LeftToeBase 30.333329 -0.000000 -0.000000
RightUpLeg -116.254198 -8.895875 3.623480
RightLeg 72.843152 -0.000000 -0.000000
RightFoot -29.722842 -26.359898 13.407484
RightToeBase 23.175938 -0.000000 -0.000000
1072
root 21.325081 27.260988 -17.235523 -144.391112 58.137108 -200.481092
Spine 48.641782 6.522502 14.189051
Head -28.426929 13.920659 -4.081506
LeftShoulder 2.470934 -37.919852 -0.498881
LeftArm 15.308255 17.197915 -69.938111
LeftForeArm 11.155314 -0.000000 32.400829
LeftHand 2.638196 -0.000000 15.194041
LeftHandThumb1 -26.253704 0.000000 33.147579
RightShoulder 18.764427 21.261646 -27.089843
RightArm 48.781310 18.675967 45.667891
RightForeArm -9.101777 -0.000000 5.062647
RightHand -15.036055 -0.000000 -19.398800
RightHandThumb1 -24.326973 -0.000000 -32.862282
LeftUpLeg -19.619189 27.603803 -4.395720
LeftLeg -4.073056 -0.000000 0.000000
LeftFoot -36.730496 9.069744 -27.137519
LeftToeBase 30.387494 -0.000000 -0.000000
RightUpLeg -116.030421 -9.058475 3.579400
RightLeg 72.924482 -0.000000 -0.000000
RightFoot -29.847350 -26.318437 13.505722
RightToeBase 23.482165 -0.000000 -0.000000
1073
root 21.315139 27.260229 -17.259114 -144.907807 57.869316 -200.820979
Spine 48.478591 6.682908 15.105873
Head -27.933341 14.760670 -5.189765
LeftShoulder 1.699711 -37.196671 -0.509658
LeftArm 13.363485 16.801847 -69.553930
LeftForeArm 11.460357 -0.000000 33.326990
LeftHand 2.555812 -0.000000 14.509582
LeftHandThumb1 -26.253704 0.000000 33.147579
RightShoulder 19.019160 20.959552 -26.991718
RightArm 47.761764 19.357972 45.464327
RightForeArm -9.283847 -0.000000 5.074276
RightHand -14.768253 -0.000000 -19.543478
RightHandThumb1 -24.326973 -0.000000 -32.862282
LeftUpLeg -19.383151 27.280164 -4.308879
LeftLeg -4.036274 -0.000000 0.000000
LeftFoot -36.743270 9.066057 -27.117674
LeftToeBase 30.394298 -0.000000 -0.000000
RightUpLeg -115.857656 -9.468739 3.553026
RightLeg 73.029682 -0.000000 -0.000000
RightFoot -29.946911 -26.246121 13.491004
RightToeBase 23.613981 -0.000000 -0.000000
1074
root 21.311748 27.259658 -17.278840 -145.280685 57.590798 -201.016930
Spine 48.330168 6.926722 16.139768
Head -27.452696 15.553522 -6.246214
LeftShoulder 0.955609 -36.535055 -0.562086
LeftArm 11.538790 16.555752 -69.035936
LeftForeArm 11.840573 -0.000000 34.020157
LeftHand 2.476393 -0.000000 13.635606
LeftHandThumb1 -26.253704 0.000000 33.147579
RightShoulder 19.143486 20.592809 -26.918681
RightArm 46.793546 19.979478 45.150903
RightForeArm -9.382577 0.000000 5.037379
RightHand -14.535086 -0.000000 -19.660368
RightHandThumb1 -24.326973 -0.000000 -32.862282
LeftUpLeg -19.184929 27.033795 -4.168386
LeftLeg -3.976241 -0.000000 0.000000
LeftFoot -36.739789 8.993850 -27.077484
LeftToeBase 30.415381 -0.000000 -0.000000
RightUpLeg -115.679522 -9.817228 3.552415
RightLeg 73.148404 -0.000000 -0.000000
RightFoot -30.057521 -26.088687 13.746158
RightToeBase 23.800541 -0.000000 -0.000000
1075
root 21.307325 27.254052 -17.301616 -145.749514 57.270014 -201.321819
Spine 48.183127 7.096550 17.090334
Head -27.111122 16.200220 -7.116358
LeftShoulder -0.149813 -35.356160 -0.377899
LeftArm 10.520135 15.994498 -68.602812
LeftForeArm 12.592413 0.000000 34.190458
LeftHand 2.651154 -0.000000 13.017685
LeftHandThumb1 -26.253704 0.000000 33.147579
RightShoulder 19.218794 20.241204 -26.808660
RightArm 45.903431 20.609014 44.841846
RightForeArm -9.455418 -0.000000 4.965384
RightHand -14.303633 0.000000 -19.612455
RightHandThumb1 -24.326973 -0.000000 -32.862282
LeftUpLeg -18.975153 26.727211 -4.058542
LeftLeg -3.927971 -0.000000 0.000000
LeftFoot -36.741581 8.927647 -27.021962
LeftToeBase 30.442862 -0.000000 -0.000000
RightUpLeg -115.552673 -10.229707 3.484504
RightLeg 73.349898 -0.000000 -0.000000
RightFoot -30.229003 -26.004638 13.956573
RightToeBase 23.324766 -0.000000 -0.000000
1076
root 21.307516 27.254834 -17.322217 -146.270812 56.953308 -201.535260
Spine 48.257762 7.329335 18.252726
Head -26.735713 16.769511 -8.103967
LeftShoulder -0.859549 -34.380551 -0.555399
LeftArm 9.334434 16.013298 -67.679861
LeftForeArm 12.762014 -0.000000 34.677238
LeftHand 2.410088 -0.000000 12.680966
LeftHandThumb1 -26.253704 0.000000 33.147579
RightShoulder 19.206080 19.930106 -26.854468
RightArm 44.825515 21.231911 44.393076
RightForeArm -9.322417 0.000000 4.873794
RightHand -14.132387 -0.000000 -19.526416
RightHandThumb1 -24.326973 -0.000000 -32.862282
LeftUpLeg -18.628765 26.493762 -3.859412
LeftLeg -3.878329 -0.000000 0.000000
LeftFoot -36.690432 8.787276 -27.046521
LeftToeBase 30.396550 -0.000000 -0.000000
RightUpLeg -115.235723 -10.606414 3.408104
RightLeg 73.489421 -0.000000 -0.000000
RightFoot -30.371258 -25.970281 14.124262
RightToeBase 23.298685 -0.000000 -0.000000
1077
root 21.301893 27.252985 -17.344572 -146.651877 56.610911 -201.749510
Spine 48.143551 7.555737 19.339100
Head -26.403507 17.383786 -9.051876
LeftShoulder -1.742797 -33.547680 -0.516152
LeftArm 8.065646 15.748656 -67.010977
LeftForeArm 13.088554 0.000000 34.755754
LeftHand 2.683126 0.000000 12.045319
LeftHandThumb1 -26.253704 0.000000 33.147579
RightShoulder 19.144995 19.547403 -26.808098
RightArm 43.877974 21.751949 43.863541
RightForeArm -8.984466 -0.000000 4.729212
RightHand -13.874516 -0.000000 -19.505906
RightHandThumb1 -24.326973 -0.000000 -32.862282
LeftUpLeg -18.450018 26.262115 -3.737155
LeftLeg -3.827608 -0.000000 0.000000
LeftFoot -36.645046 8.625505 -26.981745
LeftToeBase 30.401037 -0.000000 -0.000000
RightUpLeg -115.069047 -11.005107 3.369690
RightLeg 73.621765 -0.000000 -0.000000
RightFoot -30.455475 -25.993575 14.136126
RightToeBase 23.325256 -0.000000 -0.000000
1078
root 21.300978 27.248969 -17.366394 -147.113878 56.277269 -202.011115
Spine 48.019635 7.561932 20.188033
Head -26.023029 18.379912 -10.021737
LeftShoulder -2.753297 -32.819466 -0.382898
LeftArm 6.626883 15.534559 -66.182346
LeftForeArm 13.429365 -0.000000 34.813726
LeftHand 2.764685 0.000000 11.743256
LeftHandThumb1 -26.253704 0.000000 33.147579
RightShoulder 19.432758 19.229959 -26.709104
RightArm 42.933131 22.410167 43.371266
RightForeArm -8.683882 -0.000000 4.520046
RightHand -13.563539 -0.000000 -19.458459
RightHandThumb1 -24.326973 -0.000000 -32.862282
LeftUpLeg -18.219993 26.017306 -3.624566
LeftLeg -3.785122 -0.000000 0.000000
LeftFoot -36.604349 8.528173 -26.968126
LeftToeBase 30.413217 -0.000000 -0.000000
RightUpLeg -114.873595 -11.399848 3.231514
RightLeg 73.797197 -0.000000 -0.000000
RightFoot -30.536583 -26.037061 14.251859
RightToeBase 23.293184 -0.000000 -0.000000
1079
root 21.306360 27.252442 -17.378151 -147.289734 56.006448 -201.986295
Spine 47.987891 8.101875 21.518578
Head -25.561896 18.834003 -10.869082
LeftShoulder -3.064675 -32.143985 -0.617519
LeftArm 5.155384 15.289626 -65.288689
LeftForeArm 13.612817 -0.000000 34.929723
LeftHand 2.858877 -0.000000 10.937627
LeftHandThumb1 -26.253704 0.000000 33.147579
RightShoulder 19.170388 18.700797 -26.668536
RightArm 41.951685 23.010246 42.707605
RightForeArm -8.168565 -0.000000 4.308056
RightHand -13.285889 0.000000 -19.243469
RightHandThumb1 -24.326973 -0.000000 -32.862282
LeftUpLeg -18.057614 25.962274 -3.436008
LeftLeg -3.728831 -0.000000 0.000000
LeftFoot -36.524508 8.304735 -26.953165
LeftToeBase 30.470973 -0.000000 -0.000000
RightUpLeg -114.609254 -11.627570 3.224239
RightLeg 73.824655 -0.000000 -0.000000
RightFoot -30.607033 -26.203886 13.940730
RightToeBase 23.635807 -0.000000 -0.000000
